{
  "asset": {
    "generator": "Khronos glTF Blender I/O v1.5.17",
    "version": "2.0"
  },
  "scene": 0,
  "scenes": [
    {
      "name": "Scene",
      "nodes": [
        0
      ]
    }
  ],
  "nodes": [
    {
      "mesh": 0,
      "name": "sphere_gltf"
    }
  ],
  "materials": [
    {
      "doubleSided": true,
      "name": "brown_mud_03",
      "normalTexture": {
        "index": 0
      },
      "pbrMetallicRoughness": {
        "baseColorTexture": {
          "index": 1
        },
        "metallicFactor": 0,
        "metallicRoughnessTexture": {
          "index": 2
        }
      }
    }
  ],
  "meshes": [
    {
      "name": "Sphere.001",
      "primitives": [
        {
          "attributes": {
            "POSITION": 0,
            "NORMAL": 1,
            "TEXCOORD_0": 2
          },
          "indices": 3,
          "material": 0
        }
      ]
    }
  ],
  "textures": [
    {
      "sampler": 0,
      "source": 0
    },
    {
      "sampler": 0,
      "source": 1
    },
    {
      "sampler": 0,
      "source": 2
    }
  ],
  "images": [
    {
      "mimeType": "image/jpeg",
      "name": "brown_mud_03_nor_gl_4k",
      "uri": "textures/brown_mud_03_nor_gl_4k.jpg"
    },
    {
      "mimeType": "image/jpeg",
      "name": "brown_mud_03_diff_4k",
      "uri": "textures/brown_mud_03_diff_4k.jpg"
    },
    {
      "mimeType": "image/jpeg",
      "name": "brown_mud_03_spec_4k",
      "uri": "textures/brown_mud_03_spec_4k.jpg"
    }
  ],
  "accessors": [
    {
      "bufferView": 0,
      "componentType": 5126,
      "count": 53888,
      "max": [
        0.6270684599876404,
        0.6345413327217102,
        0.6249238848686218
      ],
      "min": [
        -0.6272846460342407,
        -0.6387828588485718,
        -0.6249144077301025
      ],
      "type": "VEC3"
    },
    {
      "bufferView": 1,
      "componentType": 5126,
      "count": 53888,
      "type": "VEC3"
    },
    {
      "bufferView": 2,
      "componentType": 5126,
      "count": 53888,
      "type": "VEC2"
    },
    {
      "bufferView": 3,
      "componentType": 5123,
      "count": 322170,
      "type": "SCALAR"
    }
  ],
  "bufferViews": [
    {
      "buffer": 0,
      "byteLength": 646656,
      "byteOffset": 0
    },
    {
      "buffer": 0,
      "byteLength": 646656,
      "byteOffset": 646656
    },
    {
      "buffer": 0,
      "byteLength": 431104,
      "byteOffset": 1293312
    },
    {
      "buffer": 0,
      "byteLength": 644340,
      "byteOffset": 1724416
    }
  ],
  "samplers": [
    {
      "magFilter": 9729,
      "minFilter": 9987
    }
  ],
  "buffers": [
    {
      "byteLength": 2368756,
      "uri": "brown_mud_03.bin"
    }
  ]
}